<mxfile host="app.diagrams.net" modified="2024-05-30T02:43:34.647Z" agent="Mozilla/5.0 (Windows NT 10.0; Win64; x64) AppleWebKit/537.36 (KHTML, like Gecko) Chrome/125.0.0.0 Safari/537.36" etag="7xVmVh2yFFKHRjcp6uMM" version="24.4.10" type="github">
  <diagram name="EXERCISE-1" id="bGsKp4M1vxJXHlKtj0fa">
    <mxGraphModel dx="1050" dy="653" grid="1" gridSize="10" guides="1" tooltips="1" connect="1" arrows="1" fold="1" page="1" pageScale="1" pageWidth="827" pageHeight="1169" math="0" shadow="0">
      <root>
        <mxCell id="0" />
        <mxCell id="1" parent="0" />
        <mxCell id="iruhZ2cfqf1Gua6wLclN-1" value="EXERCISE 14 P2" style="text;html=1;align=center;verticalAlign=middle;resizable=0;points=[];autosize=1;strokeColor=none;fillColor=none;" vertex="1" parent="1">
          <mxGeometry x="310" width="120" height="30" as="geometry" />
        </mxCell>
        <mxCell id="iruhZ2cfqf1Gua6wLclN-2" style="edgeStyle=orthogonalEdgeStyle;rounded=0;orthogonalLoop=1;jettySize=auto;html=1;exitX=0;exitY=0.5;exitDx=0;exitDy=0;entryX=0;entryY=0.5;entryDx=0;entryDy=0;" edge="1" parent="1">
          <mxGeometry relative="1" as="geometry">
            <mxPoint x="302.5" y="1310" as="targetPoint" />
            <Array as="points">
              <mxPoint x="-180" y="2250" />
              <mxPoint x="-180" y="1310" />
            </Array>
          </mxGeometry>
        </mxCell>
        <mxCell id="iruhZ2cfqf1Gua6wLclN-3" style="edgeStyle=orthogonalEdgeStyle;rounded=0;orthogonalLoop=1;jettySize=auto;html=1;exitX=0;exitY=0.5;exitDx=0;exitDy=0;entryX=0;entryY=0.5;entryDx=0;entryDy=0;" edge="1" parent="1">
          <mxGeometry relative="1" as="geometry">
            <mxPoint x="772.5" y="1390" as="targetPoint" />
            <Array as="points">
              <mxPoint x="290" y="2330" />
              <mxPoint x="290" y="1390" />
            </Array>
          </mxGeometry>
        </mxCell>
        <mxCell id="iruhZ2cfqf1Gua6wLclN-4" value="" style="edgeStyle=orthogonalEdgeStyle;rounded=0;orthogonalLoop=1;jettySize=auto;html=1;" edge="1" parent="1" source="iruhZ2cfqf1Gua6wLclN-5" target="iruhZ2cfqf1Gua6wLclN-7">
          <mxGeometry relative="1" as="geometry" />
        </mxCell>
        <mxCell id="iruhZ2cfqf1Gua6wLclN-5" value="INICIO" style="ellipse;whiteSpace=wrap;html=1;" vertex="1" parent="1">
          <mxGeometry x="335" y="30" width="80" height="80" as="geometry" />
        </mxCell>
        <mxCell id="iruhZ2cfqf1Gua6wLclN-6" value="" style="edgeStyle=orthogonalEdgeStyle;rounded=0;orthogonalLoop=1;jettySize=auto;html=1;" edge="1" parent="1" source="iruhZ2cfqf1Gua6wLclN-7" target="iruhZ2cfqf1Gua6wLclN-9">
          <mxGeometry relative="1" as="geometry" />
        </mxCell>
        <mxCell id="iruhZ2cfqf1Gua6wLclN-7" value="INPUT&lt;div&gt;n&lt;/div&gt;" style="shape=parallelogram;perimeter=parallelogramPerimeter;whiteSpace=wrap;html=1;fixedSize=1;" vertex="1" parent="1">
          <mxGeometry x="315" y="150" width="120" height="60" as="geometry" />
        </mxCell>
        <mxCell id="iruhZ2cfqf1Gua6wLclN-8" value="" style="edgeStyle=orthogonalEdgeStyle;rounded=0;orthogonalLoop=1;jettySize=auto;html=1;" edge="1" parent="1" source="iruhZ2cfqf1Gua6wLclN-9" target="iruhZ2cfqf1Gua6wLclN-12">
          <mxGeometry relative="1" as="geometry" />
        </mxCell>
        <mxCell id="iruhZ2cfqf1Gua6wLclN-9" value="esPalindromo = true&lt;div&gt;i = 0&lt;/div&gt;" style="whiteSpace=wrap;html=1;" vertex="1" parent="1">
          <mxGeometry x="315" y="240" width="120" height="60" as="geometry" />
        </mxCell>
        <mxCell id="iruhZ2cfqf1Gua6wLclN-10" value="" style="edgeStyle=orthogonalEdgeStyle;rounded=0;orthogonalLoop=1;jettySize=auto;html=1;" edge="1" parent="1" source="iruhZ2cfqf1Gua6wLclN-12" target="iruhZ2cfqf1Gua6wLclN-16">
          <mxGeometry relative="1" as="geometry" />
        </mxCell>
        <mxCell id="iruhZ2cfqf1Gua6wLclN-11" value="" style="edgeStyle=orthogonalEdgeStyle;rounded=0;orthogonalLoop=1;jettySize=auto;html=1;" edge="1" parent="1" source="iruhZ2cfqf1Gua6wLclN-12" target="iruhZ2cfqf1Gua6wLclN-20">
          <mxGeometry relative="1" as="geometry" />
        </mxCell>
        <mxCell id="iruhZ2cfqf1Gua6wLclN-12" value="n.size() &amp;gt;= i" style="rhombus;whiteSpace=wrap;html=1;fillColor=#fff2cc;strokeColor=#d6b656;" vertex="1" parent="1">
          <mxGeometry x="325" y="330" width="100" height="90" as="geometry" />
        </mxCell>
        <mxCell id="iruhZ2cfqf1Gua6wLclN-13" value="SI" style="text;html=1;align=center;verticalAlign=middle;resizable=0;points=[];autosize=1;strokeColor=none;fillColor=none;" vertex="1" parent="1">
          <mxGeometry x="415" y="380" width="30" height="30" as="geometry" />
        </mxCell>
        <mxCell id="iruhZ2cfqf1Gua6wLclN-14" value="" style="edgeStyle=orthogonalEdgeStyle;rounded=0;orthogonalLoop=1;jettySize=auto;html=1;" edge="1" parent="1" source="iruhZ2cfqf1Gua6wLclN-16" target="iruhZ2cfqf1Gua6wLclN-17">
          <mxGeometry relative="1" as="geometry" />
        </mxCell>
        <mxCell id="iruhZ2cfqf1Gua6wLclN-15" style="edgeStyle=orthogonalEdgeStyle;rounded=0;orthogonalLoop=1;jettySize=auto;html=1;entryX=1;entryY=0;entryDx=0;entryDy=0;" edge="1" parent="1" source="iruhZ2cfqf1Gua6wLclN-16" target="iruhZ2cfqf1Gua6wLclN-12">
          <mxGeometry relative="1" as="geometry">
            <mxPoint x="415" y="350" as="targetPoint" />
            <Array as="points">
              <mxPoint x="550" y="350" />
              <mxPoint x="400" y="350" />
            </Array>
          </mxGeometry>
        </mxCell>
        <mxCell id="iruhZ2cfqf1Gua6wLclN-16" value="n [i] != n [ n.size()-1-i ]" style="rhombus;whiteSpace=wrap;html=1;fillColor=#fff2cc;strokeColor=#d6b656;" vertex="1" parent="1">
          <mxGeometry x="475" y="400" width="150" height="90" as="geometry" />
        </mxCell>
        <mxCell id="iruhZ2cfqf1Gua6wLclN-17" value="esPalindromo = false" style="whiteSpace=wrap;html=1;" vertex="1" parent="1">
          <mxGeometry x="490" y="525" width="120" height="60" as="geometry" />
        </mxCell>
        <mxCell id="iruhZ2cfqf1Gua6wLclN-18" value="" style="edgeStyle=orthogonalEdgeStyle;rounded=0;orthogonalLoop=1;jettySize=auto;html=1;" edge="1" parent="1" source="iruhZ2cfqf1Gua6wLclN-20" target="iruhZ2cfqf1Gua6wLclN-28">
          <mxGeometry relative="1" as="geometry" />
        </mxCell>
        <mxCell id="iruhZ2cfqf1Gua6wLclN-19" value="" style="edgeStyle=orthogonalEdgeStyle;rounded=0;orthogonalLoop=1;jettySize=auto;html=1;" edge="1" parent="1" source="iruhZ2cfqf1Gua6wLclN-20" target="iruhZ2cfqf1Gua6wLclN-32">
          <mxGeometry relative="1" as="geometry" />
        </mxCell>
        <mxCell id="iruhZ2cfqf1Gua6wLclN-20" value="esPalindromo" style="rhombus;whiteSpace=wrap;html=1;fillColor=#fff2cc;strokeColor=#d6b656;" vertex="1" parent="1">
          <mxGeometry x="325" y="600" width="100" height="80" as="geometry" />
        </mxCell>
        <mxCell id="iruhZ2cfqf1Gua6wLclN-21" value="SI" style="text;html=1;align=center;verticalAlign=middle;resizable=0;points=[];autosize=1;strokeColor=none;fillColor=none;" vertex="1" parent="1">
          <mxGeometry x="550" y="488" width="30" height="30" as="geometry" />
        </mxCell>
        <mxCell id="iruhZ2cfqf1Gua6wLclN-22" value="NO" style="text;html=1;align=center;verticalAlign=middle;resizable=0;points=[];autosize=1;strokeColor=none;fillColor=none;" vertex="1" parent="1">
          <mxGeometry x="335" y="430" width="40" height="30" as="geometry" />
        </mxCell>
        <mxCell id="iruhZ2cfqf1Gua6wLclN-23" value="" style="endArrow=none;html=1;rounded=0;" edge="1" parent="1">
          <mxGeometry width="50" height="50" relative="1" as="geometry">
            <mxPoint x="615" y="560" as="sourcePoint" />
            <mxPoint x="550" y="350" as="targetPoint" />
            <Array as="points">
              <mxPoint x="660" y="560" />
              <mxPoint x="660" y="350" />
              <mxPoint x="600" y="350" />
            </Array>
          </mxGeometry>
        </mxCell>
        <mxCell id="iruhZ2cfqf1Gua6wLclN-24" value="++i" style="whiteSpace=wrap;html=1;" vertex="1" parent="1">
          <mxGeometry x="520" y="340" width="60" height="30" as="geometry" />
        </mxCell>
        <mxCell id="iruhZ2cfqf1Gua6wLclN-25" value="NO" style="text;html=1;align=center;verticalAlign=middle;resizable=0;points=[];autosize=1;strokeColor=none;fillColor=none;" vertex="1" parent="1">
          <mxGeometry x="545" y="368" width="40" height="30" as="geometry" />
        </mxCell>
        <mxCell id="iruhZ2cfqf1Gua6wLclN-26" value="SI" style="text;html=1;align=center;verticalAlign=middle;resizable=0;points=[];autosize=1;strokeColor=none;fillColor=none;" vertex="1" parent="1">
          <mxGeometry x="410" y="608" width="30" height="30" as="geometry" />
        </mxCell>
        <mxCell id="iruhZ2cfqf1Gua6wLclN-27" value="" style="edgeStyle=orthogonalEdgeStyle;rounded=0;orthogonalLoop=1;jettySize=auto;html=1;" edge="1" parent="1" source="iruhZ2cfqf1Gua6wLclN-28" target="iruhZ2cfqf1Gua6wLclN-30">
          <mxGeometry relative="1" as="geometry" />
        </mxCell>
        <mxCell id="iruhZ2cfqf1Gua6wLclN-28" value="OUTPUT&lt;div&gt;&quot;Es palindrome&quot;&lt;/div&gt;" style="shape=parallelogram;perimeter=parallelogramPerimeter;whiteSpace=wrap;html=1;fixedSize=1;" vertex="1" parent="1">
          <mxGeometry x="445" y="610" width="120" height="60" as="geometry" />
        </mxCell>
        <mxCell id="iruhZ2cfqf1Gua6wLclN-29" value="NO" style="text;html=1;align=center;verticalAlign=middle;resizable=0;points=[];autosize=1;strokeColor=none;fillColor=none;" vertex="1" parent="1">
          <mxGeometry x="385" y="680" width="40" height="30" as="geometry" />
        </mxCell>
        <mxCell id="iruhZ2cfqf1Gua6wLclN-30" value="FIN" style="ellipse;whiteSpace=wrap;html=1;" vertex="1" parent="1">
          <mxGeometry x="580" y="600" width="80" height="80" as="geometry" />
        </mxCell>
        <mxCell id="iruhZ2cfqf1Gua6wLclN-31" value="" style="edgeStyle=orthogonalEdgeStyle;rounded=0;orthogonalLoop=1;jettySize=auto;html=1;" edge="1" parent="1" source="iruhZ2cfqf1Gua6wLclN-32" target="iruhZ2cfqf1Gua6wLclN-33">
          <mxGeometry relative="1" as="geometry" />
        </mxCell>
        <mxCell id="iruhZ2cfqf1Gua6wLclN-32" value="OUTPUT&lt;div&gt;&quot;No es palindrome&quot;&lt;/div&gt;" style="shape=parallelogram;perimeter=parallelogramPerimeter;whiteSpace=wrap;html=1;fixedSize=1;" vertex="1" parent="1">
          <mxGeometry x="300" y="720" width="150" height="60" as="geometry" />
        </mxCell>
        <mxCell id="iruhZ2cfqf1Gua6wLclN-33" value="FIN" style="ellipse;whiteSpace=wrap;html=1;" vertex="1" parent="1">
          <mxGeometry x="335" y="820" width="80" height="80" as="geometry" />
        </mxCell>
      </root>
    </mxGraphModel>
  </diagram>
</mxfile>
